<mxfile host="app.diagrams.net" agent="Mozilla/5.0 (Windows NT 10.0; Win64; x64) AppleWebKit/537.36 (KHTML, like Gecko) Chrome/132.0.0.0 Safari/537.36" version="27.0.9">
  <diagram name="Página-1" id="tTVfNH2PPM8Fw3y5zMHK">
    <mxGraphModel grid="1" page="1" gridSize="10" guides="1" tooltips="1" connect="1" arrows="1" fold="1" pageScale="1" pageWidth="827" pageHeight="1169" math="0" shadow="0">
      <root>
        <mxCell id="0" />
        <mxCell id="1" parent="0" />
        <mxCell id="8575jS2u5Vq_ML-7M2vA-1" value="Usuario" style="swimlane;childLayout=stackLayout;horizontal=1;startSize=50;horizontalStack=0;rounded=1;fontSize=14;fontStyle=0;strokeWidth=2;resizeParent=0;resizeLast=1;shadow=0;dashed=0;align=center;arcSize=4;whiteSpace=wrap;html=1;" vertex="1" parent="1">
          <mxGeometry x="40" y="200" width="150" height="160" as="geometry">
            <mxRectangle x="40" y="200" width="90" height="50" as="alternateBounds" />
          </mxGeometry>
        </mxCell>
        <mxCell id="8575jS2u5Vq_ML-7M2vA-2" value="+ID: int&lt;div&gt;+nombre: String&lt;/div&gt;&lt;div&gt;+Apellido: String&lt;/div&gt;&lt;div&gt;+Correo : String&lt;/div&gt;&lt;div&gt;+Rol: String&lt;/div&gt;&lt;div&gt;-SubirArchivos&lt;/div&gt;&lt;div&gt;-VerResultados&lt;/div&gt;" style="align=left;strokeColor=none;fillColor=none;spacingLeft=4;spacingRight=4;fontSize=12;verticalAlign=top;resizable=0;rotatable=0;part=1;html=1;whiteSpace=wrap;" vertex="1" parent="8575jS2u5Vq_ML-7M2vA-1">
          <mxGeometry y="50" width="150" height="110" as="geometry" />
        </mxCell>
        <mxCell id="8575jS2u5Vq_ML-7M2vA-3" value="Archivos" style="swimlane;childLayout=stackLayout;horizontal=1;startSize=50;horizontalStack=0;rounded=1;fontSize=14;fontStyle=0;strokeWidth=2;resizeParent=0;resizeLast=1;shadow=0;dashed=0;align=center;arcSize=4;whiteSpace=wrap;html=1;" vertex="1" parent="1">
          <mxGeometry x="430" y="220" width="160" height="140" as="geometry">
            <mxRectangle x="430" y="220" width="90" height="50" as="alternateBounds" />
          </mxGeometry>
        </mxCell>
        <mxCell id="8575jS2u5Vq_ML-7M2vA-4" value="+ID: int&lt;div&gt;+nombre: String&lt;/div&gt;&lt;div&gt;+Contenido: Bytes&lt;/div&gt;&lt;div&gt;+Tipo: String&lt;/div&gt;&lt;div&gt;-Procesar&lt;/div&gt;" style="align=left;strokeColor=none;fillColor=none;spacingLeft=4;spacingRight=4;fontSize=12;verticalAlign=top;resizable=0;rotatable=0;part=1;html=1;whiteSpace=wrap;" vertex="1" parent="8575jS2u5Vq_ML-7M2vA-3">
          <mxGeometry y="50" width="160" height="90" as="geometry" />
        </mxCell>
        <mxCell id="8575jS2u5Vq_ML-7M2vA-9" value="InterfazWeb" style="swimlane;childLayout=stackLayout;horizontal=1;startSize=50;horizontalStack=0;rounded=1;fontSize=14;fontStyle=0;strokeWidth=2;resizeParent=0;resizeLast=1;shadow=0;dashed=0;align=center;arcSize=4;whiteSpace=wrap;html=1;" vertex="1" parent="1">
          <mxGeometry x="680" y="240" width="160" height="120" as="geometry">
            <mxRectangle x="680" y="240" width="120" height="50" as="alternateBounds" />
          </mxGeometry>
        </mxCell>
        <mxCell id="8575jS2u5Vq_ML-7M2vA-10" value="-MostrarFormularioCarga&lt;div&gt;-MostrarTablaResultados&lt;/div&gt;&lt;div&gt;-MostrarGrafica&lt;/div&gt;" style="align=left;strokeColor=none;fillColor=none;spacingLeft=4;spacingRight=4;fontSize=12;verticalAlign=top;resizable=0;rotatable=0;part=1;html=1;whiteSpace=wrap;" vertex="1" parent="8575jS2u5Vq_ML-7M2vA-9">
          <mxGeometry y="50" width="160" height="70" as="geometry" />
        </mxCell>
        <mxCell id="8575jS2u5Vq_ML-7M2vA-11" value="API" style="swimlane;childLayout=stackLayout;horizontal=1;startSize=50;horizontalStack=0;rounded=1;fontSize=14;fontStyle=0;strokeWidth=2;resizeParent=0;resizeLast=1;shadow=0;dashed=0;align=center;arcSize=4;whiteSpace=wrap;html=1;" vertex="1" parent="1">
          <mxGeometry x="220" y="480" width="160" height="120" as="geometry">
            <mxRectangle x="220" y="480" width="60" height="50" as="alternateBounds" />
          </mxGeometry>
        </mxCell>
        <mxCell id="8575jS2u5Vq_ML-7M2vA-12" value="-ValidarDatos&lt;div&gt;-GuardarResultados&lt;/div&gt;&lt;div&gt;-ConsultarResultados&lt;/div&gt;&lt;div&gt;-EnviarAnalisisIA&lt;/div&gt;" style="align=left;strokeColor=none;fillColor=none;spacingLeft=4;spacingRight=4;fontSize=12;verticalAlign=top;resizable=0;rotatable=0;part=1;html=1;whiteSpace=wrap;" vertex="1" parent="8575jS2u5Vq_ML-7M2vA-11">
          <mxGeometry y="50" width="160" height="70" as="geometry" />
        </mxCell>
        <mxCell id="8575jS2u5Vq_ML-7M2vA-13" value="IA&amp;nbsp;" style="swimlane;childLayout=stackLayout;horizontal=1;startSize=50;horizontalStack=0;rounded=1;fontSize=14;fontStyle=0;strokeWidth=2;resizeParent=0;resizeLast=1;shadow=0;dashed=0;align=center;arcSize=4;whiteSpace=wrap;html=1;" vertex="1" parent="1">
          <mxGeometry x="660" y="470" width="160" height="120" as="geometry">
            <mxRectangle x="660" y="470" width="60" height="50" as="alternateBounds" />
          </mxGeometry>
        </mxCell>
        <mxCell id="8575jS2u5Vq_ML-7M2vA-14" value="-AnalisarDatosEstadisticos&lt;div&gt;-GenerarTextoAnalisis&lt;/div&gt;" style="align=left;strokeColor=none;fillColor=none;spacingLeft=4;spacingRight=4;fontSize=12;verticalAlign=top;resizable=0;rotatable=0;part=1;html=1;whiteSpace=wrap;" vertex="1" parent="8575jS2u5Vq_ML-7M2vA-13">
          <mxGeometry y="50" width="160" height="70" as="geometry" />
        </mxCell>
        <mxCell id="8575jS2u5Vq_ML-7M2vA-38" style="edgeStyle=orthogonalEdgeStyle;rounded=0;orthogonalLoop=1;jettySize=auto;html=1;exitX=0.5;exitY=0;exitDx=0;exitDy=0;entryX=0.5;entryY=1;entryDx=0;entryDy=0;" edge="1" parent="1" source="8575jS2u5Vq_ML-7M2vA-15" target="8575jS2u5Vq_ML-7M2vA-12">
          <mxGeometry relative="1" as="geometry" />
        </mxCell>
        <mxCell id="8575jS2u5Vq_ML-7M2vA-15" value="Resultados" style="swimlane;childLayout=stackLayout;horizontal=1;startSize=50;horizontalStack=0;rounded=1;fontSize=14;fontStyle=0;strokeWidth=2;resizeParent=0;resizeLast=1;shadow=0;dashed=0;align=center;arcSize=4;whiteSpace=wrap;html=1;" vertex="1" parent="1">
          <mxGeometry x="110" y="880" width="160" height="150" as="geometry">
            <mxRectangle x="110" y="880" width="110" height="50" as="alternateBounds" />
          </mxGeometry>
        </mxCell>
        <mxCell id="8575jS2u5Vq_ML-7M2vA-16" value="+ID: int&lt;div&gt;+Año: int&lt;/div&gt;&lt;div&gt;+Ciclo: String&lt;/div&gt;&lt;div&gt;+Modulo: String&lt;/div&gt;&lt;div&gt;+Puntaje: Float&lt;/div&gt;&lt;div&gt;-FiltrarPor&lt;/div&gt;" style="align=left;strokeColor=none;fillColor=none;spacingLeft=4;spacingRight=4;fontSize=12;verticalAlign=top;resizable=0;rotatable=0;part=1;html=1;whiteSpace=wrap;" vertex="1" parent="8575jS2u5Vq_ML-7M2vA-15">
          <mxGeometry y="50" width="160" height="100" as="geometry" />
        </mxCell>
        <mxCell id="8575jS2u5Vq_ML-7M2vA-17" value="Acciones de mejora" style="swimlane;childLayout=stackLayout;horizontal=1;startSize=50;horizontalStack=0;rounded=1;fontSize=14;fontStyle=0;strokeWidth=2;resizeParent=0;resizeLast=1;shadow=0;dashed=0;align=center;arcSize=4;whiteSpace=wrap;html=1;" vertex="1" parent="1">
          <mxGeometry x="390" y="860" width="160" height="170" as="geometry">
            <mxRectangle x="390" y="860" width="160" height="50" as="alternateBounds" />
          </mxGeometry>
        </mxCell>
        <mxCell id="8575jS2u5Vq_ML-7M2vA-18" value="+ID: int&lt;div&gt;+Descripcion: String&lt;/div&gt;&lt;div&gt;+PropuestaPor: String&lt;/div&gt;&lt;div&gt;+año: int&lt;/div&gt;&lt;div&gt;+Ciclo: string&lt;/div&gt;&lt;div&gt;+modulo: string&lt;/div&gt;&lt;div&gt;-EvaluarImpacto&lt;/div&gt;" style="align=left;strokeColor=none;fillColor=none;spacingLeft=4;spacingRight=4;fontSize=12;verticalAlign=top;resizable=0;rotatable=0;part=1;html=1;whiteSpace=wrap;" vertex="1" parent="8575jS2u5Vq_ML-7M2vA-17">
          <mxGeometry y="50" width="160" height="120" as="geometry" />
        </mxCell>
        <mxCell id="8575jS2u5Vq_ML-7M2vA-27" style="edgeStyle=orthogonalEdgeStyle;rounded=0;orthogonalLoop=1;jettySize=auto;html=1;exitX=1;exitY=0;exitDx=0;exitDy=0;entryX=0.163;entryY=0.003;entryDx=0;entryDy=0;entryPerimeter=0;" edge="1" parent="1" source="8575jS2u5Vq_ML-7M2vA-1" target="8575jS2u5Vq_ML-7M2vA-9">
          <mxGeometry relative="1" as="geometry">
            <Array as="points">
              <mxPoint x="290" y="110" />
              <mxPoint x="706" y="110" />
            </Array>
          </mxGeometry>
        </mxCell>
        <mxCell id="8575jS2u5Vq_ML-7M2vA-28" style="edgeStyle=orthogonalEdgeStyle;rounded=0;orthogonalLoop=1;jettySize=auto;html=1;exitX=1;exitY=0.25;exitDx=0;exitDy=0;entryX=0;entryY=0.25;entryDx=0;entryDy=0;" edge="1" parent="1" source="8575jS2u5Vq_ML-7M2vA-2" target="8575jS2u5Vq_ML-7M2vA-3">
          <mxGeometry relative="1" as="geometry" />
        </mxCell>
        <mxCell id="8575jS2u5Vq_ML-7M2vA-29" style="edgeStyle=orthogonalEdgeStyle;rounded=0;orthogonalLoop=1;jettySize=auto;html=1;exitX=0.5;exitY=1;exitDx=0;exitDy=0;entryX=0.5;entryY=0;entryDx=0;entryDy=0;" edge="1" parent="1" source="8575jS2u5Vq_ML-7M2vA-4" target="8575jS2u5Vq_ML-7M2vA-11">
          <mxGeometry relative="1" as="geometry" />
        </mxCell>
        <mxCell id="8575jS2u5Vq_ML-7M2vA-30" value="Envia" style="text;html=1;align=center;verticalAlign=middle;resizable=0;points=[];autosize=1;strokeColor=none;fillColor=none;" vertex="1" parent="1">
          <mxGeometry x="360" y="388" width="50" height="30" as="geometry" />
        </mxCell>
        <mxCell id="8575jS2u5Vq_ML-7M2vA-32" style="edgeStyle=orthogonalEdgeStyle;rounded=0;orthogonalLoop=1;jettySize=auto;html=1;exitX=1;exitY=0.5;exitDx=0;exitDy=0;entryX=-0.018;entryY=0.359;entryDx=0;entryDy=0;entryPerimeter=0;" edge="1" parent="1" source="8575jS2u5Vq_ML-7M2vA-12" target="8575jS2u5Vq_ML-7M2vA-13">
          <mxGeometry relative="1" as="geometry">
            <Array as="points">
              <mxPoint x="380" y="480" />
              <mxPoint x="520" y="480" />
              <mxPoint x="520" y="513" />
            </Array>
          </mxGeometry>
        </mxCell>
        <mxCell id="8575jS2u5Vq_ML-7M2vA-33" value="Envia Estadisticas" style="text;html=1;align=center;verticalAlign=middle;resizable=0;points=[];autosize=1;strokeColor=none;fillColor=none;" vertex="1" parent="1">
          <mxGeometry x="530" y="480" width="120" height="30" as="geometry" />
        </mxCell>
        <mxCell id="8575jS2u5Vq_ML-7M2vA-34" value="Retorna Texto" style="text;html=1;align=center;verticalAlign=middle;resizable=0;points=[];autosize=1;strokeColor=none;fillColor=none;" vertex="1" parent="1">
          <mxGeometry x="410" y="560" width="100" height="30" as="geometry" />
        </mxCell>
        <mxCell id="8575jS2u5Vq_ML-7M2vA-36" style="edgeStyle=orthogonalEdgeStyle;rounded=0;orthogonalLoop=1;jettySize=auto;html=1;exitX=0;exitY=0.75;exitDx=0;exitDy=0;entryX=1;entryY=0.5;entryDx=0;entryDy=0;" edge="1" parent="1" source="8575jS2u5Vq_ML-7M2vA-14" target="8575jS2u5Vq_ML-7M2vA-12">
          <mxGeometry relative="1" as="geometry">
            <Array as="points">
              <mxPoint x="660" y="590" />
              <mxPoint x="520" y="590" />
              <mxPoint x="520" y="565" />
            </Array>
          </mxGeometry>
        </mxCell>
        <mxCell id="8575jS2u5Vq_ML-7M2vA-37" style="edgeStyle=orthogonalEdgeStyle;rounded=0;orthogonalLoop=1;jettySize=auto;html=1;exitX=0;exitY=1;exitDx=0;exitDy=0;entryX=0;entryY=0.5;entryDx=0;entryDy=0;" edge="1" parent="1" source="8575jS2u5Vq_ML-7M2vA-2" target="8575jS2u5Vq_ML-7M2vA-16">
          <mxGeometry relative="1" as="geometry" />
        </mxCell>
        <mxCell id="8575jS2u5Vq_ML-7M2vA-39" value="Consulta/Guarda" style="text;html=1;align=center;verticalAlign=middle;resizable=0;points=[];autosize=1;strokeColor=none;fillColor=none;" vertex="1" parent="1">
          <mxGeometry x="170" y="710" width="110" height="30" as="geometry" />
        </mxCell>
        <mxCell id="8575jS2u5Vq_ML-7M2vA-40" style="edgeStyle=orthogonalEdgeStyle;rounded=0;orthogonalLoop=1;jettySize=auto;html=1;exitX=1;exitY=0.25;exitDx=0;exitDy=0;entryX=0;entryY=0.75;entryDx=0;entryDy=0;" edge="1" parent="1" source="8575jS2u5Vq_ML-7M2vA-16" target="8575jS2u5Vq_ML-7M2vA-18">
          <mxGeometry relative="1" as="geometry" />
        </mxCell>
        <mxCell id="8575jS2u5Vq_ML-7M2vA-41" value="Exportar" style="swimlane;childLayout=stackLayout;horizontal=1;startSize=50;horizontalStack=0;rounded=1;fontSize=14;fontStyle=0;strokeWidth=2;resizeParent=0;resizeLast=1;shadow=0;dashed=0;align=center;arcSize=4;whiteSpace=wrap;html=1;" vertex="1" parent="1">
          <mxGeometry x="180" y="1160" width="160" height="90" as="geometry">
            <mxRectangle x="180" y="1160" width="90" height="50" as="alternateBounds" />
          </mxGeometry>
        </mxCell>
        <mxCell id="8575jS2u5Vq_ML-7M2vA-42" value="-Exporta a Excel" style="align=left;strokeColor=none;fillColor=none;spacingLeft=4;spacingRight=4;fontSize=12;verticalAlign=top;resizable=0;rotatable=0;part=1;html=1;whiteSpace=wrap;" vertex="1" parent="8575jS2u5Vq_ML-7M2vA-41">
          <mxGeometry y="50" width="160" height="40" as="geometry" />
        </mxCell>
        <mxCell id="8575jS2u5Vq_ML-7M2vA-51" style="edgeStyle=orthogonalEdgeStyle;rounded=0;orthogonalLoop=1;jettySize=auto;html=1;exitX=0;exitY=0.75;exitDx=0;exitDy=0;entryX=0.75;entryY=1;entryDx=0;entryDy=0;" edge="1" parent="1" source="8575jS2u5Vq_ML-7M2vA-43" target="8575jS2u5Vq_ML-7M2vA-12">
          <mxGeometry relative="1" as="geometry" />
        </mxCell>
        <mxCell id="8575jS2u5Vq_ML-7M2vA-43" value="Conexion con Datos libres" style="swimlane;childLayout=stackLayout;horizontal=1;startSize=50;horizontalStack=0;rounded=1;fontSize=14;fontStyle=0;strokeWidth=2;resizeParent=0;resizeLast=1;shadow=0;dashed=0;align=center;arcSize=4;whiteSpace=wrap;html=1;" vertex="1" parent="1">
          <mxGeometry x="550" y="670" width="160" height="85" as="geometry">
            <mxRectangle x="550" y="670" width="200" height="50" as="alternateBounds" />
          </mxGeometry>
        </mxCell>
        <mxCell id="8575jS2u5Vq_ML-7M2vA-44" value="-ExtraeDatos" style="align=left;strokeColor=none;fillColor=none;spacingLeft=4;spacingRight=4;fontSize=12;verticalAlign=top;resizable=0;rotatable=0;part=1;html=1;whiteSpace=wrap;" vertex="1" parent="8575jS2u5Vq_ML-7M2vA-43">
          <mxGeometry y="50" width="160" height="35" as="geometry" />
        </mxCell>
        <mxCell id="8575jS2u5Vq_ML-7M2vA-50" style="edgeStyle=orthogonalEdgeStyle;rounded=0;orthogonalLoop=1;jettySize=auto;html=1;exitX=1;exitY=1;exitDx=0;exitDy=0;entryX=0;entryY=0;entryDx=0;entryDy=0;" edge="1" parent="1" source="8575jS2u5Vq_ML-7M2vA-12" target="8575jS2u5Vq_ML-7M2vA-43">
          <mxGeometry relative="1" as="geometry" />
        </mxCell>
        <mxCell id="8575jS2u5Vq_ML-7M2vA-52" style="edgeStyle=orthogonalEdgeStyle;rounded=0;orthogonalLoop=1;jettySize=auto;html=1;exitX=0.75;exitY=1;exitDx=0;exitDy=0;entryX=0.5;entryY=0;entryDx=0;entryDy=0;" edge="1" parent="1" source="8575jS2u5Vq_ML-7M2vA-16" target="8575jS2u5Vq_ML-7M2vA-41">
          <mxGeometry relative="1" as="geometry" />
        </mxCell>
        <mxCell id="8575jS2u5Vq_ML-7M2vA-53" value="Envia Datos de pruebas pasadas" style="text;html=1;align=center;verticalAlign=middle;resizable=0;points=[];autosize=1;strokeColor=none;fillColor=none;" vertex="1" parent="1">
          <mxGeometry x="340" y="710" width="200" height="30" as="geometry" />
        </mxCell>
        <mxCell id="8575jS2u5Vq_ML-7M2vA-54" value="Busca" style="text;html=1;align=center;verticalAlign=middle;resizable=0;points=[];autosize=1;strokeColor=none;fillColor=none;" vertex="1" parent="1">
          <mxGeometry x="430" y="630" width="60" height="30" as="geometry" />
        </mxCell>
      </root>
    </mxGraphModel>
  </diagram>
</mxfile>
